<?xml version="1.0" standalone="no"?>
<!DOCTYPE svg PUBLIC "-//W3C//DTD SVG 20010904//EN"
 "http://www.w3.org/TR/2001/REC-SVG-20010904/DTD/svg10.dtd">
<svg version="1.0" xmlns="http://www.w3.org/2000/svg"
 width="1000.000000pt" height="1000.000000pt" viewBox="0 0 1000.000000 1000.000000"
 preserveAspectRatio="xMidYMid meet">
<metadata>
Created by potrace 1.11, written by Peter Selinger 2001-2013
</metadata>
<g transform="translate(0.000000,1000.000000) scale(0.100000,-0.100000)"
fill="#000000" stroke="none">
<path d="M4735 9039 c-33 -4 -89 -10 -125 -14 -36 -3 -72 -8 -80 -10 -20 -6
-67 -14 -115 -21 -22 -4 -48 -10 -57 -15 -10 -6 -18 -8 -18 -5 0 2 -16 0 -36
-6 -20 -5 -44 -11 -54 -13 -108 -21 -402 -131 -560 -210 -341 -170 -588 -358
-870 -664 -127 -138 -292 -384 -395 -590 -96 -191 -197 -472 -230 -641 -54
-274 -64 -385 -60 -650 2 -118 6 -228 9 -245 2 -16 7 -53 10 -81 4 -28 9 -61
11 -75 3 -13 7 -39 10 -58 2 -18 7 -41 9 -50 3 -9 8 -32 11 -51 30 -176 124
-449 228 -658 48 -96 161 -289 177 -302 3 -3 17 -21 30 -40 120 -177 332 -386
600 -593 21 -16 132 -91 145 -97 6 -3 54 -31 107 -63 123 -73 373 -195 416
-202 48 -8 89 17 101 63 9 32 15 267 12 482 -1 140 -45 200 -238 331 -246 165
-393 300 -539 495 -46 62 -84 115 -84 118 0 3 -15 30 -34 59 -122 191 -225
501 -255 772 -10 90 -7 399 4 465 3 19 8 46 11 60 32 190 64 309 125 462 129
326 344 621 619 850 193 161 484 317 730 391 96 29 253 65 314 73 23 2 66 8
96 13 30 5 152 8 270 6 286 -3 478 -37 736 -130 185 -66 497 -237 589 -322 11
-10 36 -30 55 -45 97 -74 262 -251 361 -388 143 -197 271 -473 325 -699 8 -36
18 -75 20 -86 3 -11 9 -49 15 -85 5 -36 12 -76 15 -90 13 -53 11 -446 -2 -540
-28 -212 -86 -440 -145 -567 -10 -24 -19 -45 -19 -49 0 -19 -113 -226 -174
-319 -150 -228 -342 -430 -591 -621 -203 -156 -500 -327 -745 -429 -36 -15
-78 -33 -95 -40 -16 -7 -93 -37 -170 -65 -77 -28 -149 -55 -160 -60 -11 -5
-177 -61 -370 -125 -431 -144 -545 -187 -615 -235 -101 -68 -122 -136 -115
-380 9 -320 23 -355 133 -335 37 6 893 290 1157 383 148 52 442 164 535 203
59 25 359 174 425 212 492 277 914 659 1206 1092 41 61 85 130 98 155 13 25
29 52 35 60 24 30 116 229 161 344 67 173 132 416 150 561 3 22 8 51 10 65 13
69 19 205 19 395 0 214 -5 294 -29 450 -3 17 -7 48 -11 70 -4 33 -38 191 -48
230 -114 433 -303 802 -586 1140 -68 81 -297 299 -385 366 -197 149 -289 207
-490 307 -78 38 -290 129 -320 136 -5 2 -37 11 -70 21 -33 10 -64 20 -70 21
-5 2 -41 12 -80 22 -59 17 -136 34 -255 57 -14 3 -45 7 -70 10 -25 3 -58 8
-75 11 -70 12 -133 15 -355 18 -129 1 -262 -1 -295 -5z"/>
<path d="M5995 3043 c-26 -6 -1496 -497 -1680 -561 -77 -27 -144 -49 -150 -50
-5 -1 -38 -11 -73 -23 -74 -25 -115 -63 -130 -120 -15 -61 -10 -554 7 -596 18
-45 56 -56 126 -38 61 16 1296 427 1590 529 355 124 426 174 454 323 8 40 5
319 -4 403 -1 14 -3 37 -4 52 -2 41 -43 84 -83 85 -18 0 -42 -1 -53 -4z"/>
<path d="M5645 1860 c-39 -10 -178 -55 -310 -100 -132 -45 -271 -92 -310 -105
-38 -13 -149 -51 -245 -85 -96 -33 -202 -70 -235 -81 -157 -54 -180 -98 -108
-212 81 -129 238 -237 420 -289 113 -32 289 -32 393 0 342 107 556 388 547
721 -4 158 -29 182 -152 151z"/>
</g>
</svg>
